<?xml version="1.0" encoding="utf-8"?>
<!-- Generator: Adobe Illustrator 21.1.0, SVG Export Plug-In . SVG Version: 6.00 Build 0)  -->
<svg version="1.1" id="Layer_1" xmlns="http://www.w3.org/2000/svg" xmlns:xlink="http://www.w3.org/1999/xlink" x="0px" y="0px"
	 viewBox="0 0 16.4 16.4" style="enable-background:new 0 0 16.4 16.4;" xml:space="preserve">
<style type="text/css">
	.st0{enable-background:new    ;}
	.st1{fill:#DAE4E6;}
</style>
<title></title>
<desc>Created with Sketch.</desc>
<g id="FOOTER-Update" transform="translate(-1181.000000, -97.000000)">
	<g id="Group" transform="translate(898.000000, 46.000000)">
		<g class="st0">
			<path class="st1" d="M299,64.8c0,0.8-0.6,1.4-1.4,1.4h-13.1c-0.8,0-1.4-0.6-1.4-1.4v-9.7c0-0.8,0.6-1.4,1.4-1.4h13.1
				c0.8,0,1.4,0.6,1.4,1.4V64.8z M297.6,54.8h-13.1c-0.2,0-0.3,0.1-0.3,0.3c0,1,0.5,1.9,1.3,2.5c1.2,0.9,2.4,1.9,3.6,2.8
				c0.5,0.4,1.3,1.2,2,1.2h0h0c0.6,0,1.5-0.8,2-1.2c1.2-0.9,2.4-1.9,3.6-2.8c0.6-0.5,1.3-1.4,1.3-2.2
				C297.9,55.2,297.9,54.8,297.6,54.8z M297.9,57.9c-0.2,0.2-0.4,0.4-0.6,0.6c-1.3,1-2.6,2-3.8,3c-0.7,0.6-1.5,1.2-2.4,1.2h0h0
				c-0.9,0-1.8-0.7-2.4-1.2c-1.2-1-2.5-2-3.8-3c-0.2-0.2-0.4-0.4-0.6-0.6v6.9c0,0.2,0.1,0.3,0.3,0.3h13.1c0.2,0,0.3-0.1,0.3-0.3
				V57.9z"/>
		</g>
	</g>
</g>
</svg>
